# xmcd CD database file
#
# Track frame offsets:
#	150
#	29459
#	57150
#	77400
#	104138
#	125400
#	152588
#
# Disc length: 2353 seconds
#
# Revision: 0
# Processed by: cddbd v1.5.1PL0 Copyright (c) Steve Scherf et al.
# Submitted via: CDex 1.60beta1
#
DISCID=52092f07
DTITLE=Image - To The Heart
DYEAR=1900
DGENRE=General Pop
TTITLE0=Blue
TTITLE1=桜の季節
TTITLE2=Time To Come!
TTITLE3=Season
TTITLE4=太陽と月の行事
TTITLE5=Mistake
TTITLE6=Open The Heart
EXTD=
EXTT0=
EXTT1=
EXTT2=
EXTT3=
EXTT4=
EXTT5=
EXTT6=
PLAYORDER=
